<svg version="1.1" xmlns="http://www.w3.org/2000/svg" xmlns:xlink="http://www.w3.org/1999/xlink" width="448" height="69" viewBox="0,0,448,69"><g transform="translate(-96,-145.5)"><g data-paper-data="{&quot;isPaintingLayer&quot;:true}" stroke-linecap="butt" stroke-linejoin="miter" stroke-miterlimit="10" stroke-dasharray="" stroke-dashoffset="0" style="mix-blend-mode: normal"><path d="M97,213.5v-67h446v67z" fill="#ff0000" fill-rule="nonzero" stroke="#000000" stroke-width="2"/><path d="M486.21744,160.93472c5.59252,-0.01624 7.46606,2.48182 5.62063,7.49417c-2.86527,2.6929 -5.46762,2.48494 -7.80642,-0.62451c-0.8356,-2.83529 -0.10679,-5.12539 2.1858,-6.86965z" fill="#0a0a0a" fill-rule="evenodd" stroke="none" stroke-width="1"/><path d="M123.99933,162.18375c2.91442,0 5.82878,0 8.7432,0c-0.10386,4.58456 0.00019,9.16412 0.31226,13.73931c2.55807,3.47667 4.84798,3.26871 6.86965,-0.62451c0.31201,-4.3666 0.41611,-8.7382 0.31226,-13.11479c2.91442,0 5.82878,0 8.7432,0c0.10392,4.79252 -0.00019,9.58067 -0.31226,14.36382c-0.89649,4.43218 -3.39455,7.55475 -7.49417,9.36771c-0.31201,4.15801 -0.41611,8.32165 -0.31226,12.49028c-2.91442,0 -5.82878,0 -8.7432,0c0.10386,-4.16863 -0.00025,-8.33227 -0.31226,-12.49028c-3.57634,-1.70305 -6.0744,-4.40907 -7.49417,-8.11868c-0.31207,-5.20033 -0.41618,-10.4044 -0.31226,-15.61285z" fill="#030303" fill-rule="evenodd" stroke="none" stroke-width="1"/><path d="M238.9099,162.18375c2.91461,0 5.82859,0 8.7432,0c-0.10429,7.91322 0,15.82394 0.31226,23.73153c1.22717,4.28042 3.82952,5.42578 7.80642,3.43483c0.75004,-0.56394 1.27089,-1.29212 1.56128,-2.1858c0.31226,-8.32415 0.41655,-16.65142 0.31226,-24.98056c2.91461,0 5.82859,0 8.7432,0c0.10429,8.53773 0,17.07234 -0.31226,25.60507c-1.56316,7.38925 -6.14272,11.13633 -13.73931,11.24125c-7.82828,-0.54208 -12.19988,-4.70571 -13.11479,-12.49028c-0.31226,-8.11618 -0.41655,-16.23487 -0.31226,-24.35605z" fill="#010101" fill-rule="evenodd" stroke="none" stroke-width="1"/><path d="M158.3476,172.17597c11.18492,0.49961 16.07693,6.32882 14.67608,17.48639c-4.09775,8.90494 -10.65515,11.29871 -19.67219,7.18191c-5.98584,-5.46949 -7.13076,-11.81893 -3.43483,-19.04768c2.20341,-2.91398 5.01372,-4.78752 8.43094,-5.62063z" fill="#040404" fill-rule="evenodd" stroke="none" stroke-width="1"/><path d="M316.97415,187.16431c0.99922,0.71444 2.04029,1.44325 3.12257,2.1858c-3.86824,7.85077 -10.11338,10.86904 -18.73542,9.05545c-2.22389,-1.28025 -4.20173,-2.94583 -5.93288,-4.99611c-3.84388,-7.29807 -2.69915,-13.6475 3.43483,-19.04768c8.12742,-3.8495 14.58115,-1.97596 19.35993,5.62063c-3.79767,3.19876 -7.85701,6.00907 -12.17802,8.43094c-1.4164,-1.00359 -2.35317,-2.35692 -2.81031,-4.05934c1.8342,-1.95972 3.9157,-3.6253 6.24514,-4.99611c-2.08151,-1.24903 -4.16363,-1.24903 -6.24514,0c-3.50477,3.97628 -3.29681,7.72336 0.62451,11.24125c4.60766,1.29087 8.04249,-0.27041 10.30448,-4.68385c0.8306,0.67572 1.76737,1.09227 2.81031,1.24903z" fill="#060606" fill-rule="evenodd" stroke="none" stroke-width="1"/><path d="M350.07339,172.17597c5.97722,-0.61702 10.66108,1.46449 14.05156,6.24514c0.87619,6.6211 1.18845,13.28279 0.93677,19.98445c-2.49806,0 -4.99611,0 -7.49417,0c0.10367,-5.20845 0,-10.41252 -0.31226,-15.61285c-2.49806,-4.16363 -4.99611,-4.16363 -7.49417,0c-0.31226,5.20033 -0.41593,10.4044 -0.31226,15.61285c-2.49806,0 -4.99611,0 -7.49417,0c-0.10367,-6.0403 0,-12.07748 0.31226,-18.11091c1.48572,-3.87823 4.08807,-6.58425 7.80642,-8.11868z" fill="#020202" fill-rule="evenodd" stroke="none" stroke-width="1"/><path d="M378.17652,172.17597c6.16021,-0.71507 11.05265,1.36706 14.67608,6.24514c0.60765,1.18158 1.0242,2.43061 1.24903,3.74708c0.31226,5.40829 0.41593,10.82095 0.31226,16.23736c-2.70602,0 -5.41266,0 -8.11868,0c0.10367,-5.20845 0,-10.41252 -0.31226,-15.61285c-3.22437,-3.47355 -6.13835,-3.26558 -8.7432,0.62451c-0.88806,5.8798 1.50633,8.16989 7.18191,6.86965c0.62014,2.88525 0.82873,5.79924 0.62451,8.7432c-11.84828,0.53833 -17.15665,-5.08229 -15.92511,-16.86188c1.19282,-5.0417 4.21172,-8.37223 9.05545,-9.99222z" fill="#060606" fill-rule="evenodd" stroke="none" stroke-width="1"/><path d="M406.90416,172.17597c4.02687,-0.58704 7.56599,0.45402 10.61674,3.12257c4.87246,-4.03124 9.86857,-4.13491 14.98834,-0.31226c1.55254,1.9591 2.69728,4.1449 3.43483,6.5574c0.31226,5.61688 0.41593,11.2375 0.31226,16.86188c-2.70602,0 -5.41266,0 -8.11868,0c0.10367,-5.41641 0,-10.82907 -0.31226,-16.23736c-2.08151,-3.33053 -4.16363,-3.33053 -6.24514,0c-0.31226,5.40829 -0.41593,10.82095 -0.31226,16.23736c-2.49806,0 -4.99611,0 -7.49417,0c0.10367,-5.41641 0,-10.82907 -0.31226,-16.23736c-1.90352,-2.19204 -3.98502,-2.40001 -6.24514,-0.62451c-0.31226,5.61688 -0.41593,11.2375 -0.31226,16.86188c-2.70602,0 -5.41266,0 -8.11868,0c-0.10367,-5.83234 0,-11.66155 0.31226,-17.48639c1.20281,-4.21859 3.80516,-7.1332 7.80642,-8.7432z" fill="#060606" fill-rule="evenodd" stroke="none" stroke-width="1"/><path d="M449.37111,172.17597c6.83468,-0.75129 11.83079,1.85043 14.98834,7.80642c-3.68338,3.15817 -7.63843,5.96848 -11.86577,8.43094c-1.14099,-1.24903 -2.18205,-2.60235 -3.12257,-4.05934c2.08151,-1.66558 4.16363,-3.33053 6.24514,-4.99611c-3.46168,-1.65871 -6.06341,-0.72194 -7.80642,2.81031c-1.22967,7.0976 1.58064,9.90791 8.43094,8.43094c1.99532,-1.05855 3.45231,-2.61984 4.3716,-4.68385c2.10024,0.83872 3.97378,1.98346 5.62063,3.43483c-4.52211,9.0286 -11.39176,11.52665 -20.60896,7.49417c-7.72336,-6.85342 -8.13929,-14.139 -1.24903,-21.85799c1.68057,-1.00234 3.34615,-1.93912 4.99611,-2.81031z" fill="#070707" fill-rule="evenodd" stroke="none" stroke-width="1"/><path d="M177.08301,172.80048c2.70602,0 5.41266,0 8.11868,0c-0.10367,5.41641 0,10.82907 0.31226,16.23736c0.47338,1.50508 1.51445,2.12959 3.12257,1.87354c1.66558,0.20796 2.91461,-0.41655 3.74708,-1.87354c0.31226,-5.40829 0.41593,-10.82095 0.31226,-16.23736c2.70602,0 5.41266,0 8.11868,0c0.10367,5.41641 0,10.82907 -0.31226,16.23736c-3.02015,8.95241 -8.95303,11.76272 -17.79865,8.43094c-2.21015,-1.19095 -3.77144,-2.9602 -4.68385,-5.30837c-0.89056,-6.40377 -1.20281,-12.85749 -0.93677,-19.35993z" fill="#070707" fill-rule="evenodd" stroke="none" stroke-width="1"/><path d="M205.18614,172.80048c2.49806,0 4.99611,0 7.49417,0c-0.09992,1.06105 0.00375,2.10211 0.31226,3.12257c2.24825,-2.52803 5.05856,-3.5691 8.43094,-3.12257c0,2.49806 0,4.99611 0,7.49417c-3.30056,-0.15675 -5.90291,1.09227 -7.80642,3.74708c-0.87182,4.73382 -1.18408,9.52196 -0.93677,14.36382c-2.49806,0 -4.99611,0 -7.49417,0c0,-8.53523 0,-17.06984 0,-25.60507z" fill="#030303" fill-rule="evenodd" stroke="none" stroke-width="1"/><path d="M276.38074,172.80048c4.16363,0 8.32664,0 12.49028,0c0,2.29009 0,4.57956 0,6.86965c-3.44794,-0.27853 -6.7791,0.03372 -9.99222,0.93677c3.67839,1.78798 7.11321,3.97378 10.30448,6.5574c2.13022,5.62687 0.36097,9.26966 -5.30837,10.92899c-4.3666,0.31226 -8.7382,0.41593 -13.11479,0.31226c0,-2.49806 0,-4.99611 0,-7.49417c3.77019,0.20547 7.51727,-0.0025 11.24125,-0.62451c-2.57112,-1.73115 -5.27777,-3.29244 -8.11868,-4.68385c-2.34755,-2.33756 -3.07636,-5.14787 -2.1858,-8.43094c1.0879,-2.02717 2.64919,-3.48416 4.68385,-4.3716z" fill="#050505" fill-rule="evenodd" stroke="none" stroke-width="1"/><path d="M338.83214,172.80048c0,2.49806 0,4.99611 0,7.49417c-0.9986,-0.16737 -1.83108,0.04122 -2.49806,0.62451c-2.80219,0.19984 -4.57144,1.65684 -5.30837,4.3716c-0.31226,4.3666 -0.41593,8.7382 -0.31226,13.11479c-2.49806,0 -4.99611,0 -7.49417,0c0,-8.53523 0,-17.06984 0,-25.60507c2.29009,0 4.57956,0 6.86965,0c-0.10117,1.26589 0.00312,2.51492 0.31226,3.74708c2.17144,-2.69915 4.98175,-3.94818 8.43094,-3.74708z" fill="#000000" fill-rule="evenodd" stroke="none" stroke-width="1"/><path d="M338.83214,172.80048c0.20796,0 0.41655,0 0.62451,0c0,2.70602 0,5.41266 0,8.11868c-1.04106,0 -2.08151,0 -3.12257,0c0.66698,-0.5833 1.49946,-0.79188 2.49806,-0.62451c0,-2.49806 0,-4.99611 0,-7.49417z" fill="#4e5051" fill-rule="evenodd" stroke="none" stroke-width="1"/><path d="M484.3439,172.80048c2.70602,0 5.41266,0 8.11868,0c0,8.53523 0,17.06984 0,25.60507c-2.70602,0 -5.41266,0 -8.11868,0c0,-8.53523 0,-17.06984 0,-25.60507z" fill="#070707" fill-rule="evenodd" stroke="none" stroke-width="1"/><path d="M496.83417,198.40556c0,-2.29009 0,-4.57956 0,-6.86965c3.45106,0.20047 6.78222,-0.00749 9.99222,-0.62451c0.79688,-0.55332 0.79688,-1.17783 0,-1.87354c-3.5972,-1.01421 -6.6161,-2.88775 -9.05545,-5.62063c-1.80797,-4.98924 -0.24668,-8.42407 4.68385,-10.30448c3.95005,-0.31226 7.9051,-0.41593 11.86577,-0.31226c0,2.29009 0,4.57956 0,6.86965c-3.12257,0 -6.24514,0 -9.36771,0c-0.10617,0.82561 0.1018,1.55442 0.62451,2.1858c4.41282,1.10352 7.84764,3.4979 10.30448,7.18191c0.64887,3.73584 -0.70383,6.54616 -4.05934,8.43094c-4.95802,0.82498 -9.95413,1.13724 -14.98834,0.93677z" fill="#040404" fill-rule="evenodd" stroke="none" stroke-width="1"/><path d="M158.97211,180.29465c5.11883,0.01811 7.09641,2.51617 5.93288,7.49417c-2.91442,4.16363 -5.82878,4.16363 -8.7432,0c-0.95288,-3.28557 -0.01611,-5.78362 2.81031,-7.49417z" fill="#ff0000" fill-rule="evenodd" stroke="none" stroke-width="1"/><path d="M506.8264,190.91139c-3.21,0.61702 -6.54116,0.82498 -9.99222,0.62451c0,2.29009 0,4.57956 0,6.86965c-0.6139,-2.3719 -0.82248,-4.86996 -0.62451,-7.49417c3.53912,0 7.07762,0 10.61674,0z" fill="#444546" fill-rule="evenodd" stroke="none" stroke-width="1"/></g></g></svg>